<?xml version="1.0" encoding="utf-8"?>
<!-- Generator: Adobe Illustrator 26.0.2, SVG Export Plug-In . SVG Version: 6.00 Build 0)  -->
<svg version="1.1" id="Camada_1" xmlns="http://www.w3.org/2000/svg" xmlns:xlink="http://www.w3.org/1999/xlink" x="0px" y="0px"
	 viewBox="0 0 512 512" style="enable-background:new 0 0 512 512;" xml:space="preserve">
<style type="text/css">
	.st0{fill:#FFFFFF;}
</style>
<g transform="translate(0.000000,512.000000) scale(0.100000,-0.100000)">
	<path class="st0" d="M2315,5109c-800-83-1501-518-1927-1196c-604-960-491-2229,272-3065c423-463,951-740,1585-830
		c118-17,511-16,635,0c579,80,1097,337,1491,739c130,132,157,163,243,277c256,341,423,757,488,1211c17,118,17,512,0,630
		c-43,303-122,561-247,814c-134,268-270,459-483,674c-395,400-889,649-1457,733C2792,5114,2437,5122,2315,5109z M3163,4020
		c288-19,456-82,610-228c156-149,228-332,247-629c13-195,13-1006,0-1204c-19-300-93-485-253-636c-149-141-321-205-604-223
		c-192-12-1014-12-1206,0c-288,19-456,82-610,228c-156,149-228,332-247,629c-13,194-12,1028,0,1212c20,293,92,475,247,623
		c148,140,325,210,582,227C2098,4031,2990,4031,3163,4020z"/>
	<path class="st0" d="M2195,3759c-300-6-349-9-416-27c-213-58-334-178-391-391c-18-67-21-117-27-429c-3-193-3-511,0-705
		c6-311,9-361,27-428c57-213,178-334,391-391c67-18,117-21,429-27c193-3,511-3,705,0c313,6,361,9,430,28c207,55,333,180,389,388
		c18,70,21,116,27,431c3,193,3,511,0,705c-6,312-9,361-27,428c-57,213-179,335-391,391c-78,20-98,21-661,31
		C2600,3764,2382,3762,2195,3759z M3407,3509c38-14,83-57,99-96c49-113-38-243-161-243c-94,0-175,80-175,174
		C3170,3465,3294,3552,3407,3509z M2803,3273c121-42,188-85,283-178c92-91,149-181,191-300c26-74,28-91,28-235s-2-161-28-235
		c-40-115-100-209-186-296c-87-86-181-146-296-186c-74-26-91-28-235-28s-161,2-235,28c-119,42-209,99-300,191
		c-93,95-135,162-179,283c-30,85-31,94-31,243c1,141,3,162,28,235c52,155,163,301,297,390c146,97,251,126,440,122
		C2700,3304,2724,3300,2803,3273z"/>
	<path class="st0" d="M2442,3034c-263-70-423-334-357-588c48-183,178-313,362-361c344-90,678,244,588,588
		C2965,2940,2698,3103,2442,3034z"/>
</g>
</svg>
