<?xml version="1.0" encoding="utf-8"?>
<!-- Generator: Adobe Illustrator 26.0.2, SVG Export Plug-In . SVG Version: 6.00 Build 0)  -->
<svg version="1.1" id="Camada_1" xmlns="http://www.w3.org/2000/svg" xmlns:xlink="http://www.w3.org/1999/xlink" x="0px" y="0px"
	 viewBox="0 0 512 512" style="enable-background:new 0 0 512 512;" xml:space="preserve">
<style type="text/css">
	.st0{fill:#FFFFFF;}
</style>
<g transform="translate(0.000000,512.000000) scale(0.100000,-0.100000)">
	<path class="st0" d="M2375,5114c-386-37-677-121-993-284c-482-250-871-647-1112-1135c-93-187-136-302-185-486
		c-60-232-78-373-79-629c0-128,5-266,12-320c55-410,183-763,398-1093l72-111L329,587c-88-259-158-471-156-473s220,66,486,151
		s487,155,492,155c4,0,45-23,91-52c46-28,142-80,213-114c647-309,1386-336,2048-73c750,297,1326,948,1532,1730c63,240,78,371,78,649
		s-15,409-78,649c-242,917-977,1630-1905,1847c-156,36-318,55-515,58C2505,5116,2397,5116,2375,5114z M1765,3928c17-9,40-33,52-55
		c29-53,273-638,280-674c9-45-36-122-135-234c-104-117-126-154-117-196c17-76,248-383,391-518c221-209,555-408,704-419
		c77-5,104,16,222,172c53,71,109,142,126,158c38,39,95,47,160,23c82-31,585-276,621-303l34-25l-6-106c-14-272-110-413-362-536
		c-240-117-428-114-795,13c-494,171-755,334-1110,691c-178,178-304,329-448,536c-238,340-329,603-302,870c22,214,97,372,248,523
		c73,73,168,103,312,98C1701,3944,1746,3938,1765,3928z"/>
</g>
</svg>
